REM DIRINDEX 1\2,1\3,1\4,1\5
REM DIRNAME folder01,folder02,folder03,folder04,folder05
TITLE ""
FILE "1Q_t_0870-0879.mp3" MP3
  TRACK 01 AUDIO
    TITLE "3:cjc004_3513"
    INDEX 01 00:00:00
  TRACK 02 AUDIO
    TITLE "0:"
    INDEX 01 00:00:64
  TRACK 03 AUDIO
    TITLE "4:cjc004_3514"
    INDEX 01 00:01:21
  TRACK 04 AUDIO
    TITLE "0:"
    INDEX 01 00:03:06
  TRACK 05 AUDIO
    TITLE "5:cjc004_3515"
    INDEX 01 00:03:33
  TRACK 06 AUDIO
    TITLE "0:"
    INDEX 01 00:07:41
  TRACK 07 AUDIO
    TITLE "3:cjc004_3516"
    INDEX 01 00:08:21
  TRACK 08 AUDIO
    TITLE "0:"
    INDEX 01 00:09:20
  TRACK 09 AUDIO
    TITLE "4:cjc004_3517"
    INDEX 01 00:09:47
  TRACK 10 AUDIO
    TITLE "0:"
    INDEX 01 00:10:66
  TRACK 11 AUDIO
    TITLE "5:cjc004_3518"
    INDEX 01 00:11:19
  TRACK 12 AUDIO
    TITLE "0:"
    INDEX 01 00:17:14
  TRACK 13 AUDIO
    TITLE "3:cjc004_3519"
    INDEX 01 00:18:05
  TRACK 14 AUDIO
    TITLE "0:"
    INDEX 01 00:19:15
  TRACK 15 AUDIO
    TITLE "4:cjc004_3520"
    INDEX 01 00:19:46
  TRACK 16 AUDIO
    TITLE "0:"
    INDEX 01 00:21:06
  TRACK 17 AUDIO
    TITLE "5:cjc004_3521"
    INDEX 01 00:21:29
  TRACK 18 AUDIO
    TITLE "0:"
    INDEX 01 00:25:45
  TRACK 19 AUDIO
    TITLE "3:cjc004_3522"
    INDEX 01 00:26:22
  TRACK 20 AUDIO
    TITLE "0:"
    INDEX 01 00:27:20
  TRACK 21 AUDIO
    TITLE "4:cjc004_3523"
    INDEX 01 00:27:51
  TRACK 22 AUDIO
    TITLE "0:"
    INDEX 01 00:29:03
  TRACK 23 AUDIO
    TITLE "5:cjc004_3524"
    INDEX 01 00:29:34
  TRACK 24 AUDIO
    TITLE "0:"
    INDEX 01 00:33:34
  TRACK 25 AUDIO
    TITLE "3:cjc004_3525"
    INDEX 01 00:34:10
  TRACK 26 AUDIO
    TITLE "0:"
    INDEX 01 00:35:10
  TRACK 27 AUDIO
    TITLE "4:cjc004_3526"
    INDEX 01 00:35:41
  TRACK 28 AUDIO
    TITLE "0:"
    INDEX 01 00:36:48
  TRACK 29 AUDIO
    TITLE "5:cjc004_3527"
    INDEX 01 00:36:70
  TRACK 30 AUDIO
    TITLE "0:"
    INDEX 01 00:41:10
  TRACK 31 AUDIO
    TITLE "3:cjc004_3528"
    INDEX 01 00:41:63
  TRACK 32 AUDIO
    TITLE "0:"
    INDEX 01 00:42:74
  TRACK 33 AUDIO
    TITLE "4:cjc004_3529"
    INDEX 01 00:43:21
  TRACK 34 AUDIO
    TITLE "0:"
    INDEX 01 00:44:40
  TRACK 35 AUDIO
    TITLE "5:cjc004_3530"
    INDEX 01 00:44:63
  TRACK 36 AUDIO
    TITLE "0:"
    INDEX 01 00:48:57
  TRACK 37 AUDIO
    TITLE "3:cjc004_3531"
    INDEX 01 00:49:31
  TRACK 38 AUDIO
    TITLE "0:"
    INDEX 01 00:50:48
  TRACK 39 AUDIO
    TITLE "4:cjc004_3532"
    INDEX 01 00:51:01
  TRACK 40 AUDIO
    TITLE "0:"
    INDEX 01 00:52:08
  TRACK 41 AUDIO
    TITLE "5:cjc004_3533"
    INDEX 01 00:52:32
  TRACK 42 AUDIO
    TITLE "0:"
    INDEX 01 00:56:71
  TRACK 43 AUDIO
    TITLE "3:cjc004_3534"
    INDEX 01 00:57:46
  TRACK 44 AUDIO
    TITLE "0:"
    INDEX 01 00:59:12
  TRACK 45 AUDIO
    TITLE "4:cjc004_3535"
    INDEX 01 00:59:39
  TRACK 46 AUDIO
    TITLE "0:"
    INDEX 01 01:00:70
  TRACK 47 AUDIO
    TITLE "5:cjc004_3536"
    INDEX 01 01:01:19
  TRACK 48 AUDIO
    TITLE "0:"
    INDEX 01 01:06:18
  TRACK 49 AUDIO
    TITLE "3:cjc004_3537"
    INDEX 01 01:06:69
  TRACK 50 AUDIO
    TITLE "0:"
    INDEX 01 01:08:17
  TRACK 51 AUDIO
    TITLE "4:cjc004_3538"
    INDEX 01 01:08:42
  TRACK 52 AUDIO
    TITLE "0:"
    INDEX 01 01:09:63
  TRACK 53 AUDIO
    TITLE "5:cjc004_3539"
    INDEX 01 01:10:12
  TRACK 54 AUDIO
    TITLE "0:"
    INDEX 01 01:13:40
  TRACK 55 AUDIO
    TITLE "3:cjc004_3540"
    INDEX 01 01:14:19
  TRACK 56 AUDIO
    TITLE "0:"
    INDEX 01 01:15:31
  TRACK 57 AUDIO
    TITLE "4:cjc004_3541"
    INDEX 01 01:15:62
  TRACK 58 AUDIO
    TITLE "0:"
    INDEX 01 01:17:14
  TRACK 59 AUDIO
    TITLE "5:cjc004_3542"
    INDEX 01 01:17:39
  TRACK 60 AUDIO
    TITLE "0:"
    INDEX 01 01:22:42
